<svg width="120" height="50" viewBox="0 0 33 11" fill="none" xmlns="http://www.w3.org/2000/svg">
<path d="M4.50426 1.27273V10H2.65909V3.02415H2.60795L0.609375 4.27699V2.64062L2.76989 1.27273H4.50426Z" fill="#FD0000"/>
<path d="M14.3299 4.32812H12.4634C12.4293 4.08665 12.3597 3.87216 12.2546 3.68466C12.1495 3.49432 12.0146 3.33239 11.8498 3.19886C11.685 3.06534 11.4947 2.96307 11.2788 2.89205C11.0657 2.82102 10.8342 2.78551 10.5842 2.78551C10.1325 2.78551 9.73899 2.89773 9.40376 3.12216C9.06854 3.34375 8.80859 3.66761 8.62393 4.09375C8.43928 4.51705 8.34695 5.03125 8.34695 5.63636C8.34695 6.25852 8.43928 6.78125 8.62393 7.20455C8.81143 7.62784 9.0728 7.94744 9.40803 8.16335C9.74325 8.37926 10.131 8.48722 10.5714 8.48722C10.8185 8.48722 11.0472 8.45455 11.2575 8.3892C11.4705 8.32386 11.6594 8.22869 11.8242 8.10369C11.989 7.97585 12.1254 7.82102 12.2333 7.6392C12.3441 7.45739 12.4208 7.25 12.4634 7.01705L14.3299 7.02557C14.2816 7.42614 14.1609 7.8125 13.9677 8.18466C13.7773 8.55398 13.5202 8.88494 13.1964 9.17756C12.8754 9.46733 12.4918 9.69744 12.0458 9.8679C11.6026 10.0355 11.1012 10.1193 10.5415 10.1193C9.76314 10.1193 9.06712 9.94318 8.45348 9.59091C7.84268 9.23864 7.35973 8.72869 7.00462 8.06108C6.65234 7.39347 6.47621 6.58523 6.47621 5.63636C6.47621 4.68466 6.65518 3.875 7.01314 3.20739C7.37109 2.53977 7.85689 2.03125 8.47053 1.68182C9.08416 1.32955 9.7745 1.15341 10.5415 1.15341C11.0472 1.15341 11.516 1.22443 11.9478 1.36648C12.3825 1.50852 12.7674 1.71591 13.1026 1.98864C13.4379 2.25852 13.7106 2.58949 13.9208 2.98153C14.1339 3.37358 14.2702 3.82244 14.3299 4.32812ZM17.4854 10.1236C17.0678 10.1236 16.6957 10.0511 16.369 9.90625C16.0423 9.75852 15.7837 9.54119 15.5934 9.25426C15.4059 8.96449 15.3121 8.60369 15.3121 8.17188C15.3121 7.80824 15.3789 7.50284 15.5124 7.25568C15.646 7.00852 15.8278 6.80966 16.0579 6.65909C16.288 6.50852 16.5494 6.39489 16.842 6.31818C17.1374 6.24148 17.4471 6.1875 17.771 6.15625C18.1516 6.11648 18.4585 6.07955 18.6914 6.04545C18.9244 6.00852 19.0934 5.95455 19.1985 5.88352C19.3036 5.8125 19.3562 5.70739 19.3562 5.56818V5.54261C19.3562 5.27273 19.271 5.06392 19.1005 4.91619C18.9329 4.76847 18.6942 4.6946 18.3846 4.6946C18.0579 4.6946 17.7979 4.76705 17.6048 4.91193C17.4116 5.05398 17.2837 5.23295 17.2212 5.44886L15.5423 5.3125C15.6275 4.91477 15.7951 4.57102 16.0451 4.28125C16.2951 3.98864 16.6175 3.7642 17.0124 3.60795C17.4102 3.44886 17.8704 3.36932 18.3931 3.36932C18.7567 3.36932 19.1048 3.41193 19.4371 3.49716C19.7724 3.58239 20.0692 3.71449 20.3278 3.89347C20.5891 4.07244 20.7951 4.30256 20.9457 4.58381C21.0962 4.86222 21.1715 5.19602 21.1715 5.58523V10H19.4499V9.09233H19.3988C19.2937 9.29688 19.1531 9.47727 18.9769 9.63352C18.8008 9.78693 18.5891 9.90767 18.342 9.99574C18.0948 10.081 17.8093 10.1236 17.4854 10.1236ZM18.0053 8.87074C18.2724 8.87074 18.5082 8.81818 18.7127 8.71307C18.9173 8.60511 19.0778 8.46023 19.1942 8.27841C19.3107 8.09659 19.369 7.89062 19.369 7.66051V6.96591C19.3121 7.00284 19.234 7.03693 19.1346 7.06818C19.038 7.09659 18.9286 7.12358 18.8065 7.14915C18.6843 7.17187 18.5621 7.19318 18.44 7.21307C18.3178 7.23011 18.207 7.24574 18.1076 7.25994C17.8945 7.29119 17.7085 7.34091 17.5494 7.40909C17.3903 7.47727 17.2667 7.5696 17.1786 7.68608C17.0906 7.79972 17.0465 7.94176 17.0465 8.11222C17.0465 8.35938 17.136 8.5483 17.315 8.67898C17.4968 8.80682 17.7269 8.87074 18.0053 8.87074ZM26.0998 3.45455V4.81818H22.06V3.45455H26.0998ZM22.9847 10V2.98153C22.9847 2.5071 23.0771 2.11364 23.2617 1.80114C23.4492 1.48864 23.7049 1.25426 24.0288 1.09801C24.3526 0.941761 24.7205 0.863636 25.1325 0.863636C25.4109 0.863636 25.6651 0.884943 25.8952 0.927557C26.1282 0.97017 26.3015 1.00852 26.4151 1.04261L26.0913 2.40625C26.0202 2.38352 25.9322 2.36222 25.8271 2.34233C25.7248 2.32244 25.6197 2.3125 25.5117 2.3125C25.2447 2.3125 25.0586 2.375 24.9535 2.5C24.8484 2.62216 24.7958 2.79403 24.7958 3.01562V10H22.9847ZM29.9574 10.1278C29.2841 10.1278 28.7045 9.99148 28.2188 9.71875C27.7358 9.44318 27.3636 9.05398 27.1023 8.55114C26.8409 8.04545 26.7102 7.44744 26.7102 6.7571C26.7102 6.08381 26.8409 5.4929 27.1023 4.98438C27.3636 4.47585 27.7315 4.07955 28.206 3.79545C28.6832 3.51136 29.2429 3.36932 29.8849 3.36932C30.3168 3.36932 30.7188 3.43892 31.0909 3.57812C31.4659 3.71449 31.7926 3.92045 32.071 4.19602C32.3523 4.47159 32.571 4.81818 32.7273 5.2358C32.8835 5.65057 32.9616 6.13636 32.9616 6.69318V7.19176H27.4347V6.06676H31.2528C31.2528 5.8054 31.196 5.57386 31.0824 5.37216C30.9688 5.17045 30.8111 5.01278 30.6094 4.89915C30.4105 4.78267 30.179 4.72443 29.9148 4.72443C29.6392 4.72443 29.3949 4.78835 29.1818 4.91619C28.9716 5.04119 28.8068 5.21023 28.6875 5.4233C28.5682 5.63352 28.5071 5.8679 28.5043 6.12642V7.19602C28.5043 7.51989 28.5639 7.79972 28.6832 8.03551C28.8054 8.27131 28.9773 8.45312 29.1989 8.58097C29.4205 8.70881 29.6832 8.77273 29.9872 8.77273C30.1889 8.77273 30.3736 8.74432 30.5412 8.6875C30.7088 8.63068 30.8523 8.54545 30.9716 8.43182C31.0909 8.31818 31.1818 8.17898 31.2443 8.0142L32.9233 8.125C32.8381 8.52841 32.6634 8.88068 32.3991 9.18182C32.1378 9.48011 31.7997 9.71307 31.3849 9.88068C30.973 10.0455 30.4972 10.1278 29.9574 10.1278Z" fill="white"/>
</svg>
