<svg width="120" height="50" viewBox="0 0 27 11" fill="none" xmlns="http://www.w3.org/2000/svg">
<path d="M4.50426 0.272727V9H2.65909V2.02415H2.60795L0.609375 3.27699V1.64062L2.76989 0.272727H4.50426Z" fill="#FD0000"/>
<path d="M13.8633 1.59961C13.8633 1.70508 13.8457 1.83203 13.8105 1.98047C13.7793 2.12891 13.7324 2.2832 13.6699 2.44336C13.6074 2.60352 13.5312 2.76367 13.4414 2.92383C13.3555 3.08008 13.2559 3.22266 13.1426 3.35156C13.0293 3.47656 12.9062 3.57812 12.7734 3.65625C12.6406 3.73438 12.498 3.77344 12.3457 3.77344C12.3105 3.77344 12.2637 3.77148 12.2051 3.76758C12.1504 3.75977 12.0938 3.74609 12.0352 3.72656C11.9805 3.70312 11.9316 3.66992 11.8887 3.62695C11.8496 3.58398 11.8301 3.52734 11.8301 3.45703C11.8301 3.41016 11.8418 3.35547 11.8652 3.29297C11.8926 3.23047 11.9395 3.1582 12.0059 3.07617C12.0762 2.99805 12.1523 2.90625 12.2344 2.80078C12.3164 2.69141 12.3906 2.57812 12.457 2.46094C12.5234 2.34375 12.5781 2.22852 12.6211 2.11523C12.668 2.00195 12.6914 1.90039 12.6914 1.81055C12.6914 1.69727 12.6641 1.60742 12.6094 1.54102C12.5586 1.4707 12.4688 1.43555 12.3398 1.43555C12.1719 1.43555 11.9824 1.49023 11.7715 1.59961C11.5605 1.70898 11.3398 1.85938 11.1094 2.05078C10.8789 2.24219 10.6445 2.4668 10.4062 2.72461C10.168 2.97852 9.9375 3.25195 9.71484 3.54492C9.49219 3.83398 9.28125 4.13672 9.08203 4.45312C8.88672 4.76562 8.71484 5.07617 8.56641 5.38477C8.42188 5.68945 8.30664 5.98438 8.2207 6.26953C8.13867 6.55078 8.09766 6.80664 8.09766 7.03711C8.09766 7.32227 8.17383 7.55078 8.32617 7.72266C8.47852 7.89453 8.73047 7.98047 9.08203 7.98047C9.24609 7.98047 9.49023 7.91797 9.81445 7.79297C10.1387 7.66406 10.4082 7.53711 10.623 7.41211C10.8418 7.2832 11.0605 7.14258 11.2793 6.99023C11.502 6.83398 11.7129 6.68555 11.9121 6.54492C12.1113 6.40039 12.293 6.27148 12.457 6.1582C12.6211 6.04102 12.7559 5.95898 12.8613 5.91211C12.8809 5.89648 12.9043 5.88867 12.9316 5.88867C12.9902 5.88867 13.0293 5.9375 13.0488 6.03516C13.0723 6.12891 13.084 6.23633 13.084 6.35742C13.084 6.42383 13.0742 6.50586 13.0547 6.60352C13.0391 6.69727 12.9844 6.80664 12.8906 6.93164C12.8477 6.98242 12.7676 7.06836 12.6504 7.18945C12.5332 7.31055 12.3867 7.44727 12.2109 7.59961C12.0352 7.75195 11.834 7.91016 11.6074 8.07422C11.3809 8.23828 11.1348 8.38867 10.8691 8.52539C10.6074 8.66211 10.2676 8.79688 9.84961 8.92969C9.43555 9.0625 9.07422 9.12891 8.76562 9.12891C8.40234 9.12891 8.0918 9.08594 7.83398 9C7.57617 8.91016 7.36523 8.78711 7.20117 8.63086C7.03711 8.47461 6.91602 8.28906 6.83789 8.07422C6.76367 7.85547 6.72656 7.61719 6.72656 7.35938C6.72656 7.03906 6.77539 6.69531 6.87305 6.32812C6.9707 5.96094 7.10547 5.58789 7.27734 5.20898C7.45312 4.83008 7.66016 4.45117 7.89844 4.07227C8.14062 3.69336 8.4043 3.33203 8.68945 2.98828C8.97852 2.64062 9.28516 2.31836 9.60938 2.02148C9.93359 1.72461 10.2656 1.4668 10.6055 1.24805C10.9453 1.0293 11.2871 0.857422 11.6309 0.732422C11.9746 0.607422 12.3125 0.544922 12.6445 0.544922C12.8086 0.544922 12.9648 0.564453 13.1133 0.603516C13.2617 0.638672 13.3906 0.697266 13.5 0.779297C13.6133 0.861328 13.7012 0.970703 13.7637 1.10742C13.8301 1.24023 13.8633 1.4043 13.8633 1.59961ZM14.8945 5.80078C14.7109 5.80078 14.5332 5.84766 14.3613 5.94141C14.1895 6.03516 14.0371 6.1582 13.9043 6.31055C13.7715 6.46289 13.666 6.63477 13.5879 6.82617C13.5098 7.01367 13.4707 7.20312 13.4707 7.39453C13.4707 7.47266 13.4746 7.55469 13.4824 7.64062C13.4941 7.72266 13.5176 7.79883 13.5527 7.86914C13.5879 7.93945 13.6367 7.99805 13.6992 8.04492C13.7656 8.0918 13.8535 8.11523 13.9629 8.11523C14.0488 8.11523 14.1484 8.07812 14.2617 8.00391C14.3789 7.92578 14.498 7.82812 14.6191 7.71094C14.7441 7.58984 14.8652 7.45898 14.9824 7.31836C15.0996 7.17383 15.2051 7.0332 15.2988 6.89648C15.3926 6.75977 15.4688 6.63672 15.5273 6.52734C15.5859 6.41797 15.6152 6.33789 15.6152 6.28711C15.6152 6.21289 15.5898 6.14648 15.5391 6.08789C15.4883 6.02539 15.4258 5.97266 15.3516 5.92969C15.2773 5.88672 15.1973 5.85547 15.1113 5.83594C15.0293 5.8125 14.957 5.80078 14.8945 5.80078ZM18.9551 7.3125C18.8848 7.37891 18.791 7.4707 18.6738 7.58789C18.5566 7.70508 18.4219 7.83203 18.2695 7.96875C18.1211 8.10547 17.9609 8.24414 17.7891 8.38477C17.6211 8.52148 17.4473 8.64648 17.2676 8.75977C17.0918 8.87305 16.918 8.96484 16.7461 9.03516C16.5742 9.10938 16.4121 9.14648 16.2598 9.14648C16.123 9.14648 16.0059 9.11719 15.9082 9.05859C15.8105 9 15.7285 8.92383 15.6621 8.83008C15.5996 8.73633 15.5527 8.63086 15.5215 8.51367C15.4902 8.39258 15.4746 8.26953 15.4746 8.14453C15.4746 8.0625 15.4805 7.98242 15.4922 7.9043C15.5039 7.82227 15.5234 7.74609 15.5508 7.67578C15.4297 7.83984 15.291 8.00977 15.1348 8.18555C14.9824 8.35742 14.8164 8.51562 14.6367 8.66016C14.4609 8.80078 14.2754 8.91602 14.0801 9.00586C13.8887 9.09961 13.6934 9.14648 13.4941 9.14648C13.3926 9.14648 13.2734 9.125 13.1367 9.08203C13.0039 9.04297 12.877 8.97656 12.7559 8.88281C12.6348 8.78906 12.5332 8.66797 12.4512 8.51953C12.3691 8.37109 12.3281 8.18945 12.3281 7.97461C12.3281 7.81445 12.3516 7.62305 12.3984 7.40039C12.4492 7.17773 12.5234 6.94727 12.6211 6.70898C12.7227 6.4668 12.8496 6.22852 13.002 5.99414C13.1582 5.75977 13.3418 5.55078 13.5527 5.36719C13.7637 5.17969 14.0039 5.0293 14.2734 4.91602C14.543 4.79883 14.8438 4.74023 15.1758 4.74023C15.3477 4.74023 15.498 4.76172 15.627 4.80469C15.7559 4.84766 15.8652 4.89453 15.9551 4.94531C16.0566 5.00781 16.1465 5.07617 16.2246 5.15039C16.291 5.11523 16.3594 5.08203 16.4297 5.05078C16.4883 5.02344 16.5488 5 16.6113 4.98047C16.6777 4.95703 16.7344 4.94531 16.7812 4.94531C16.9297 4.94531 17.0508 4.98633 17.1445 5.06836C17.2383 5.15039 17.2852 5.24023 17.2852 5.33789C17.2852 5.36523 17.2832 5.38672 17.2793 5.40234C17.2598 5.47656 17.2285 5.57031 17.1855 5.68359C17.1465 5.79688 17.1016 5.92383 17.0508 6.06445C17 6.20117 16.9473 6.3457 16.8926 6.49805C16.8418 6.64648 16.7949 6.79297 16.752 6.9375C16.709 7.08203 16.6738 7.21875 16.6465 7.34766C16.6191 7.47266 16.6055 7.58008 16.6055 7.66992C16.6055 7.78711 16.625 7.88477 16.6641 7.96289C16.7031 8.03711 16.7695 8.07422 16.8633 8.07422C16.9219 8.07422 16.9902 8.05664 17.0684 8.02148C17.1504 7.98242 17.2383 7.93164 17.332 7.86914C17.4258 7.80664 17.5215 7.73633 17.6191 7.6582C17.7207 7.57617 17.8184 7.49414 17.9121 7.41211C18.1309 7.2168 18.3633 6.99414 18.6094 6.74414C18.6719 6.69336 18.7324 6.66797 18.791 6.66797C18.8691 6.66797 18.9336 6.70703 18.9844 6.78516C19.0391 6.85938 19.0664 6.94336 19.0664 7.03711C19.0664 7.14648 19.0293 7.23828 18.9551 7.3125ZM22.3887 5.67188C22.1855 5.67969 21.9922 5.68555 21.8086 5.68945C21.6289 5.69336 21.4531 5.69727 21.2812 5.70117C21.1094 5.70117 20.9395 5.70117 20.7715 5.70117C20.6035 5.70117 20.4336 5.70117 20.2617 5.70117C20.1602 5.90039 20.0449 6.13281 19.916 6.39844C19.791 6.66016 19.6582 6.93555 19.5176 7.22461C19.3809 7.51367 19.2422 7.80664 19.1016 8.10352C18.9648 8.39648 18.834 8.67578 18.709 8.94141C18.584 9.20312 18.4707 9.43945 18.3691 9.65039C18.2676 9.86523 18.1855 10.0352 18.123 10.1602C18.0801 10.25 18.0273 10.332 17.9648 10.4062C17.9023 10.4844 17.834 10.5508 17.7598 10.6055C17.6855 10.6602 17.6094 10.7012 17.5312 10.7285C17.4531 10.7598 17.3809 10.7754 17.3145 10.7754C17.2207 10.7754 17.1367 10.752 17.0625 10.7051C16.9883 10.6582 16.9512 10.584 16.9512 10.4824C16.9512 10.4316 16.9629 10.3711 16.9863 10.3008C17.0098 10.2344 17.043 10.1562 17.0859 10.0664L19.1543 5.68359H18.8438C18.6289 5.68359 18.4824 5.65039 18.4043 5.58398C18.3262 5.51758 18.2871 5.43945 18.2871 5.34961C18.2871 5.25586 18.3359 5.16602 18.4336 5.08008C18.5312 4.99023 18.6738 4.94531 18.8613 4.94531H19.5527C19.8301 4.38672 20.1074 3.92578 20.3848 3.5625C20.666 3.19922 20.9414 2.91211 21.2109 2.70117C21.4805 2.49023 21.7422 2.34375 21.9961 2.26172C22.2539 2.17969 22.5 2.13867 22.7344 2.13867C22.8438 2.13867 22.9473 2.16016 23.0449 2.20312C23.1465 2.24609 23.2344 2.31055 23.3086 2.39648C23.3867 2.48242 23.4492 2.5918 23.4961 2.72461C23.543 2.85352 23.5664 3.00586 23.5664 3.18164C23.5664 3.34961 23.543 3.53516 23.4961 3.73828C23.4844 3.79297 23.4609 3.83984 23.4258 3.87891C23.3906 3.91406 23.3516 3.94336 23.3086 3.9668C23.2656 3.99023 23.2227 4.00781 23.1797 4.01953C23.1367 4.02734 23.0996 4.03125 23.0684 4.03125C22.9902 4.03125 22.918 4.01367 22.8516 3.97852C22.7852 3.93945 22.752 3.88086 22.752 3.80273C22.752 3.75195 22.7539 3.70508 22.7578 3.66211C22.7656 3.61914 22.7695 3.57617 22.7695 3.5332C22.7695 3.36914 22.7383 3.25195 22.6758 3.18164C22.6172 3.11133 22.5371 3.07617 22.4355 3.07617C22.3145 3.07617 22.1719 3.12891 22.0078 3.23438C21.8477 3.33984 21.6836 3.48047 21.5156 3.65625C21.3516 3.83203 21.1934 4.0332 21.041 4.25977C20.8887 4.48242 20.7637 4.71094 20.666 4.94531H22.0312C22.1523 4.94531 22.2656 4.94727 22.3711 4.95117C22.4766 4.95508 22.5684 4.9668 22.6465 4.98633C22.7285 5.00586 22.791 5.03906 22.834 5.08594C22.8809 5.12891 22.9043 5.19336 22.9043 5.2793C22.9043 5.32227 22.8965 5.36523 22.8809 5.4082C22.8652 5.45117 22.8379 5.49219 22.7988 5.53125C22.7637 5.56641 22.7129 5.59766 22.6465 5.625C22.5801 5.64844 22.4941 5.66406 22.3887 5.67188ZM23.7305 5.54297C23.7109 5.53906 23.6934 5.53711 23.6777 5.53711C23.6621 5.53711 23.6445 5.53711 23.625 5.53711C23.4766 5.53711 23.3379 5.56641 23.209 5.625C23.0801 5.68359 22.9609 5.76172 22.8516 5.85938C22.7461 5.95312 22.6504 6.06055 22.5645 6.18164C22.4824 6.30273 22.4082 6.42383 22.3418 6.54492C22.2754 6.66211 22.2188 6.77539 22.1719 6.88477C22.1289 6.99414 22.0957 7.08594 22.0723 7.16016C22.209 7.08984 22.3496 7.00977 22.4941 6.91992C22.6426 6.83008 22.7812 6.74414 22.9102 6.66211C23.0391 6.58008 23.1504 6.50586 23.2441 6.43945C23.3418 6.37305 23.4102 6.32812 23.4492 6.30469C23.625 6.19531 23.7461 6.09375 23.8125 6C23.8789 5.90234 23.9121 5.81836 23.9121 5.74805C23.9121 5.68945 23.8926 5.64258 23.8535 5.60742C23.8184 5.57227 23.7773 5.55078 23.7305 5.54297ZM23.9414 4.73438C24.2656 4.73438 24.5078 4.8125 24.668 4.96875C24.8281 5.125 24.9082 5.3418 24.9082 5.61914C24.9082 5.7832 24.8652 5.95508 24.7793 6.13477C24.6934 6.31445 24.5449 6.49805 24.334 6.68555C24.123 6.86914 23.8398 7.05859 23.4844 7.25391C23.1328 7.44531 22.6914 7.63867 22.1602 7.83398C22.1797 7.94727 22.2402 8.03711 22.3418 8.10352C22.4434 8.16602 22.5781 8.19727 22.7461 8.19727C22.9258 8.19727 23.1172 8.17188 23.3203 8.12109C23.5273 8.06641 23.7305 7.99805 23.9297 7.91602C24.1328 7.83398 24.3301 7.74609 24.5215 7.65234C24.7129 7.55469 24.8848 7.46289 25.0371 7.37695C25.1934 7.29102 25.3223 7.2168 25.4238 7.1543C25.5293 7.0918 25.5996 7.05273 25.6348 7.03711C25.6699 7.01367 25.7012 7 25.7285 6.99609C25.7598 6.99219 25.7871 6.99023 25.8105 6.99023C25.8574 6.99023 25.8965 7.00195 25.9277 7.02539C25.959 7.04492 25.9844 7.07031 26.0039 7.10156C26.0273 7.12891 26.043 7.16016 26.0508 7.19531C26.0586 7.22656 26.0625 7.25391 26.0625 7.27734C26.0625 7.3125 26.0586 7.35547 26.0508 7.40625C26.043 7.45312 26.0137 7.50781 25.9629 7.57031C25.9434 7.58984 25.877 7.64258 25.7637 7.72852C25.6543 7.81445 25.5117 7.91602 25.3359 8.0332C25.1602 8.15039 24.9551 8.27539 24.7207 8.4082C24.4902 8.53711 24.2441 8.65625 23.9824 8.76562C23.7246 8.875 23.4551 8.96484 23.1738 9.03516C22.8926 9.10938 22.6152 9.14648 22.3418 9.14648C22.1074 9.14648 21.8984 9.10156 21.7148 9.01172C21.5352 8.92188 21.3809 8.80078 21.252 8.64844C21.127 8.49609 21.0312 8.32031 20.9648 8.12109C20.8984 7.92188 20.8652 7.71289 20.8652 7.49414C20.8652 7.32617 20.8984 7.14258 20.9648 6.94336C21.0312 6.74023 21.127 6.53711 21.252 6.33398C21.377 6.13086 21.5293 5.93359 21.709 5.74219C21.8926 5.54688 22.0977 5.375 22.3242 5.22656C22.5508 5.07812 22.7988 4.95898 23.0684 4.86914C23.3418 4.7793 23.6328 4.73438 23.9414 4.73438Z" fill="white"/>
</svg>
