<svg width="120" height="50" viewBox="0 0 26 11" fill="none" xmlns="http://www.w3.org/2000/svg">
<path d="M0.519531 8.05273C0.701823 7.75977 0.867839 7.47982 1.01758 7.21289C1.16732 6.93945 1.30729 6.67578 1.4375 6.42188C1.57422 6.16797 1.70443 5.92057 1.82812 5.67969C1.95833 5.43229 2.0918 5.1849 2.22852 4.9375L3.56641 2.50586C3.48177 2.53841 3.33854 2.59375 3.13672 2.67188C2.94141 2.75 2.72982 2.83464 2.50195 2.92578C2.2806 3.01042 2.06901 3.0918 1.86719 3.16992C1.67188 3.24805 1.53516 3.30013 1.45703 3.32617C1.4375 3.33919 1.41146 3.34896 1.37891 3.35547C1.35286 3.35547 1.33333 3.35547 1.32031 3.35547C1.21615 3.35547 1.12174 3.31315 1.03711 3.22852C0.958984 3.13737 0.919922 3.02018 0.919922 2.87695C0.919922 2.75326 0.958984 2.61654 1.03711 2.4668C1.11523 2.31706 1.25521 2.16081 1.45703 1.99805C1.89323 1.70508 2.32943 1.44141 2.76562 1.20703C2.94792 1.10938 3.13997 1.01497 3.3418 0.923828C3.54362 0.826172 3.74219 0.741536 3.9375 0.669922C4.13932 0.591797 4.33464 0.529948 4.52344 0.484375C4.71875 0.438802 4.89779 0.416016 5.06055 0.416016C5.24935 0.416016 5.41211 0.468099 5.54883 0.572266C5.69206 0.669922 5.76367 0.842448 5.76367 1.08984C5.76367 1.16797 5.75716 1.25911 5.74414 1.36328C5.73112 1.46094 5.69857 1.5651 5.64648 1.67578C5.54883 1.8776 5.42839 2.13802 5.28516 2.45703C5.14844 2.76953 4.9987 3.11458 4.83594 3.49219C4.67318 3.86328 4.50065 4.25716 4.31836 4.67383C4.14258 5.09049 3.96354 5.50065 3.78125 5.9043C3.60547 6.30794 3.43294 6.69531 3.26367 7.06641C3.0944 7.43099 2.94141 7.75326 2.80469 8.0332C2.70703 8.22852 2.58984 8.40104 2.45312 8.55078C2.32292 8.70052 2.18294 8.82747 2.0332 8.93164C1.88997 9.0293 1.74023 9.10417 1.58398 9.15625C1.42773 9.20833 1.28125 9.23438 1.14453 9.23438C0.936198 9.23438 0.757161 9.17904 0.607422 9.06836C0.464193 8.96419 0.392578 8.80469 0.392578 8.58984C0.392578 8.51823 0.399089 8.43359 0.412109 8.33594C0.42513 8.23828 0.460938 8.14388 0.519531 8.05273Z" fill="#FD0000"/>
<path d="M13.1797 1.59961C13.1797 1.70508 13.1621 1.83203 13.127 1.98047C13.0957 2.12891 13.0488 2.2832 12.9863 2.44336C12.9238 2.60352 12.8477 2.76367 12.7578 2.92383C12.6719 3.08008 12.5723 3.22266 12.459 3.35156C12.3457 3.47656 12.2227 3.57812 12.0898 3.65625C11.957 3.73438 11.8145 3.77344 11.6621 3.77344C11.627 3.77344 11.5801 3.77148 11.5215 3.76758C11.4668 3.75977 11.4102 3.74609 11.3516 3.72656C11.2969 3.70312 11.248 3.66992 11.2051 3.62695C11.166 3.58398 11.1465 3.52734 11.1465 3.45703C11.1465 3.41016 11.1582 3.35547 11.1816 3.29297C11.209 3.23047 11.2559 3.1582 11.3223 3.07617C11.3926 2.99805 11.4688 2.90625 11.5508 2.80078C11.6328 2.69141 11.707 2.57812 11.7734 2.46094C11.8398 2.34375 11.8945 2.22852 11.9375 2.11523C11.9844 2.00195 12.0078 1.90039 12.0078 1.81055C12.0078 1.69727 11.9805 1.60742 11.9258 1.54102C11.875 1.4707 11.7852 1.43555 11.6562 1.43555C11.4883 1.43555 11.2988 1.49023 11.0879 1.59961C10.877 1.70898 10.6562 1.85938 10.4258 2.05078C10.1953 2.24219 9.96094 2.4668 9.72266 2.72461C9.48438 2.97852 9.25391 3.25195 9.03125 3.54492C8.80859 3.83398 8.59766 4.13672 8.39844 4.45312C8.20312 4.76562 8.03125 5.07617 7.88281 5.38477C7.73828 5.68945 7.62305 5.98438 7.53711 6.26953C7.45508 6.55078 7.41406 6.80664 7.41406 7.03711C7.41406 7.32227 7.49023 7.55078 7.64258 7.72266C7.79492 7.89453 8.04688 7.98047 8.39844 7.98047C8.5625 7.98047 8.80664 7.91797 9.13086 7.79297C9.45508 7.66406 9.72461 7.53711 9.93945 7.41211C10.1582 7.2832 10.377 7.14258 10.5957 6.99023C10.8184 6.83398 11.0293 6.68555 11.2285 6.54492C11.4277 6.40039 11.6094 6.27148 11.7734 6.1582C11.9375 6.04102 12.0723 5.95898 12.1777 5.91211C12.1973 5.89648 12.2207 5.88867 12.248 5.88867C12.3066 5.88867 12.3457 5.9375 12.3652 6.03516C12.3887 6.12891 12.4004 6.23633 12.4004 6.35742C12.4004 6.42383 12.3906 6.50586 12.3711 6.60352C12.3555 6.69727 12.3008 6.80664 12.207 6.93164C12.1641 6.98242 12.084 7.06836 11.9668 7.18945C11.8496 7.31055 11.7031 7.44727 11.5273 7.59961C11.3516 7.75195 11.1504 7.91016 10.9238 8.07422C10.6973 8.23828 10.4512 8.38867 10.1855 8.52539C9.92383 8.66211 9.58398 8.79688 9.16602 8.92969C8.75195 9.0625 8.39062 9.12891 8.08203 9.12891C7.71875 9.12891 7.4082 9.08594 7.15039 9C6.89258 8.91016 6.68164 8.78711 6.51758 8.63086C6.35352 8.47461 6.23242 8.28906 6.1543 8.07422C6.08008 7.85547 6.04297 7.61719 6.04297 7.35938C6.04297 7.03906 6.0918 6.69531 6.18945 6.32812C6.28711 5.96094 6.42188 5.58789 6.59375 5.20898C6.76953 4.83008 6.97656 4.45117 7.21484 4.07227C7.45703 3.69336 7.7207 3.33203 8.00586 2.98828C8.29492 2.64062 8.60156 2.31836 8.92578 2.02148C9.25 1.72461 9.58203 1.4668 9.92188 1.24805C10.2617 1.0293 10.6035 0.857422 10.9473 0.732422C11.291 0.607422 11.6289 0.544922 11.9609 0.544922C12.125 0.544922 12.2812 0.564453 12.4297 0.603516C12.5781 0.638672 12.707 0.697266 12.8164 0.779297C12.9297 0.861328 13.0176 0.970703 13.0801 1.10742C13.1465 1.24023 13.1797 1.4043 13.1797 1.59961ZM14.2109 5.80078C14.0273 5.80078 13.8496 5.84766 13.6777 5.94141C13.5059 6.03516 13.3535 6.1582 13.2207 6.31055C13.0879 6.46289 12.9824 6.63477 12.9043 6.82617C12.8262 7.01367 12.7871 7.20312 12.7871 7.39453C12.7871 7.47266 12.791 7.55469 12.7988 7.64062C12.8105 7.72266 12.834 7.79883 12.8691 7.86914C12.9043 7.93945 12.9531 7.99805 13.0156 8.04492C13.082 8.0918 13.1699 8.11523 13.2793 8.11523C13.3652 8.11523 13.4648 8.07812 13.5781 8.00391C13.6953 7.92578 13.8145 7.82812 13.9355 7.71094C14.0605 7.58984 14.1816 7.45898 14.2988 7.31836C14.416 7.17383 14.5215 7.0332 14.6152 6.89648C14.709 6.75977 14.7852 6.63672 14.8438 6.52734C14.9023 6.41797 14.9316 6.33789 14.9316 6.28711C14.9316 6.21289 14.9062 6.14648 14.8555 6.08789C14.8047 6.02539 14.7422 5.97266 14.668 5.92969C14.5938 5.88672 14.5137 5.85547 14.4277 5.83594C14.3457 5.8125 14.2734 5.80078 14.2109 5.80078ZM18.2715 7.3125C18.2012 7.37891 18.1074 7.4707 17.9902 7.58789C17.873 7.70508 17.7383 7.83203 17.5859 7.96875C17.4375 8.10547 17.2773 8.24414 17.1055 8.38477C16.9375 8.52148 16.7637 8.64648 16.584 8.75977C16.4082 8.87305 16.2344 8.96484 16.0625 9.03516C15.8906 9.10938 15.7285 9.14648 15.5762 9.14648C15.4395 9.14648 15.3223 9.11719 15.2246 9.05859C15.127 9 15.0449 8.92383 14.9785 8.83008C14.916 8.73633 14.8691 8.63086 14.8379 8.51367C14.8066 8.39258 14.791 8.26953 14.791 8.14453C14.791 8.0625 14.7969 7.98242 14.8086 7.9043C14.8203 7.82227 14.8398 7.74609 14.8672 7.67578C14.7461 7.83984 14.6074 8.00977 14.4512 8.18555C14.2988 8.35742 14.1328 8.51562 13.9531 8.66016C13.7773 8.80078 13.5918 8.91602 13.3965 9.00586C13.2051 9.09961 13.0098 9.14648 12.8105 9.14648C12.709 9.14648 12.5898 9.125 12.4531 9.08203C12.3203 9.04297 12.1934 8.97656 12.0723 8.88281C11.9512 8.78906 11.8496 8.66797 11.7676 8.51953C11.6855 8.37109 11.6445 8.18945 11.6445 7.97461C11.6445 7.81445 11.668 7.62305 11.7148 7.40039C11.7656 7.17773 11.8398 6.94727 11.9375 6.70898C12.0391 6.4668 12.166 6.22852 12.3184 5.99414C12.4746 5.75977 12.6582 5.55078 12.8691 5.36719C13.0801 5.17969 13.3203 5.0293 13.5898 4.91602C13.8594 4.79883 14.1602 4.74023 14.4922 4.74023C14.6641 4.74023 14.8145 4.76172 14.9434 4.80469C15.0723 4.84766 15.1816 4.89453 15.2715 4.94531C15.373 5.00781 15.4629 5.07617 15.541 5.15039C15.6074 5.11523 15.6758 5.08203 15.7461 5.05078C15.8047 5.02344 15.8652 5 15.9277 4.98047C15.9941 4.95703 16.0508 4.94531 16.0977 4.94531C16.2461 4.94531 16.3672 4.98633 16.4609 5.06836C16.5547 5.15039 16.6016 5.24023 16.6016 5.33789C16.6016 5.36523 16.5996 5.38672 16.5957 5.40234C16.5762 5.47656 16.5449 5.57031 16.502 5.68359C16.4629 5.79688 16.418 5.92383 16.3672 6.06445C16.3164 6.20117 16.2637 6.3457 16.209 6.49805C16.1582 6.64648 16.1113 6.79297 16.0684 6.9375C16.0254 7.08203 15.9902 7.21875 15.9629 7.34766C15.9355 7.47266 15.9219 7.58008 15.9219 7.66992C15.9219 7.78711 15.9414 7.88477 15.9805 7.96289C16.0195 8.03711 16.0859 8.07422 16.1797 8.07422C16.2383 8.07422 16.3066 8.05664 16.3848 8.02148C16.4668 7.98242 16.5547 7.93164 16.6484 7.86914C16.7422 7.80664 16.8379 7.73633 16.9355 7.6582C17.0371 7.57617 17.1348 7.49414 17.2285 7.41211C17.4473 7.2168 17.6797 6.99414 17.9258 6.74414C17.9883 6.69336 18.0488 6.66797 18.1074 6.66797C18.1855 6.66797 18.25 6.70703 18.3008 6.78516C18.3555 6.85938 18.3828 6.94336 18.3828 7.03711C18.3828 7.14648 18.3457 7.23828 18.2715 7.3125ZM21.7051 5.67188C21.502 5.67969 21.3086 5.68555 21.125 5.68945C20.9453 5.69336 20.7695 5.69727 20.5977 5.70117C20.4258 5.70117 20.2559 5.70117 20.0879 5.70117C19.9199 5.70117 19.75 5.70117 19.5781 5.70117C19.4766 5.90039 19.3613 6.13281 19.2324 6.39844C19.1074 6.66016 18.9746 6.93555 18.834 7.22461C18.6973 7.51367 18.5586 7.80664 18.418 8.10352C18.2812 8.39648 18.1504 8.67578 18.0254 8.94141C17.9004 9.20312 17.7871 9.43945 17.6855 9.65039C17.584 9.86523 17.502 10.0352 17.4395 10.1602C17.3965 10.25 17.3438 10.332 17.2812 10.4062C17.2188 10.4844 17.1504 10.5508 17.0762 10.6055C17.002 10.6602 16.9258 10.7012 16.8477 10.7285C16.7695 10.7598 16.6973 10.7754 16.6309 10.7754C16.5371 10.7754 16.4531 10.752 16.3789 10.7051C16.3047 10.6582 16.2676 10.584 16.2676 10.4824C16.2676 10.4316 16.2793 10.3711 16.3027 10.3008C16.3262 10.2344 16.3594 10.1562 16.4023 10.0664L18.4707 5.68359H18.1602C17.9453 5.68359 17.7988 5.65039 17.7207 5.58398C17.6426 5.51758 17.6035 5.43945 17.6035 5.34961C17.6035 5.25586 17.6523 5.16602 17.75 5.08008C17.8477 4.99023 17.9902 4.94531 18.1777 4.94531H18.8691C19.1465 4.38672 19.4238 3.92578 19.7012 3.5625C19.9824 3.19922 20.2578 2.91211 20.5273 2.70117C20.7969 2.49023 21.0586 2.34375 21.3125 2.26172C21.5703 2.17969 21.8164 2.13867 22.0508 2.13867C22.1602 2.13867 22.2637 2.16016 22.3613 2.20312C22.4629 2.24609 22.5508 2.31055 22.625 2.39648C22.7031 2.48242 22.7656 2.5918 22.8125 2.72461C22.8594 2.85352 22.8828 3.00586 22.8828 3.18164C22.8828 3.34961 22.8594 3.53516 22.8125 3.73828C22.8008 3.79297 22.7773 3.83984 22.7422 3.87891C22.707 3.91406 22.668 3.94336 22.625 3.9668C22.582 3.99023 22.5391 4.00781 22.4961 4.01953C22.4531 4.02734 22.416 4.03125 22.3848 4.03125C22.3066 4.03125 22.2344 4.01367 22.168 3.97852C22.1016 3.93945 22.0684 3.88086 22.0684 3.80273C22.0684 3.75195 22.0703 3.70508 22.0742 3.66211C22.082 3.61914 22.0859 3.57617 22.0859 3.5332C22.0859 3.36914 22.0547 3.25195 21.9922 3.18164C21.9336 3.11133 21.8535 3.07617 21.752 3.07617C21.6309 3.07617 21.4883 3.12891 21.3242 3.23438C21.1641 3.33984 21 3.48047 20.832 3.65625C20.668 3.83203 20.5098 4.0332 20.3574 4.25977C20.2051 4.48242 20.0801 4.71094 19.9824 4.94531H21.3477C21.4688 4.94531 21.582 4.94727 21.6875 4.95117C21.793 4.95508 21.8848 4.9668 21.9629 4.98633C22.0449 5.00586 22.1074 5.03906 22.1504 5.08594C22.1973 5.12891 22.2207 5.19336 22.2207 5.2793C22.2207 5.32227 22.2129 5.36523 22.1973 5.4082C22.1816 5.45117 22.1543 5.49219 22.1152 5.53125C22.0801 5.56641 22.0293 5.59766 21.9629 5.625C21.8965 5.64844 21.8105 5.66406 21.7051 5.67188ZM23.0469 5.54297C23.0273 5.53906 23.0098 5.53711 22.9941 5.53711C22.9785 5.53711 22.9609 5.53711 22.9414 5.53711C22.793 5.53711 22.6543 5.56641 22.5254 5.625C22.3965 5.68359 22.2773 5.76172 22.168 5.85938C22.0625 5.95312 21.9668 6.06055 21.8809 6.18164C21.7988 6.30273 21.7246 6.42383 21.6582 6.54492C21.5918 6.66211 21.5352 6.77539 21.4883 6.88477C21.4453 6.99414 21.4121 7.08594 21.3887 7.16016C21.5254 7.08984 21.666 7.00977 21.8105 6.91992C21.959 6.83008 22.0977 6.74414 22.2266 6.66211C22.3555 6.58008 22.4668 6.50586 22.5605 6.43945C22.6582 6.37305 22.7266 6.32812 22.7656 6.30469C22.9414 6.19531 23.0625 6.09375 23.1289 6C23.1953 5.90234 23.2285 5.81836 23.2285 5.74805C23.2285 5.68945 23.209 5.64258 23.1699 5.60742C23.1348 5.57227 23.0938 5.55078 23.0469 5.54297ZM23.2578 4.73438C23.582 4.73438 23.8242 4.8125 23.9844 4.96875C24.1445 5.125 24.2246 5.3418 24.2246 5.61914C24.2246 5.7832 24.1816 5.95508 24.0957 6.13477C24.0098 6.31445 23.8613 6.49805 23.6504 6.68555C23.4395 6.86914 23.1562 7.05859 22.8008 7.25391C22.4492 7.44531 22.0078 7.63867 21.4766 7.83398C21.4961 7.94727 21.5566 8.03711 21.6582 8.10352C21.7598 8.16602 21.8945 8.19727 22.0625 8.19727C22.2422 8.19727 22.4336 8.17188 22.6367 8.12109C22.8438 8.06641 23.0469 7.99805 23.2461 7.91602C23.4492 7.83398 23.6465 7.74609 23.8379 7.65234C24.0293 7.55469 24.2012 7.46289 24.3535 7.37695C24.5098 7.29102 24.6387 7.2168 24.7402 7.1543C24.8457 7.0918 24.916 7.05273 24.9512 7.03711C24.9863 7.01367 25.0176 7 25.0449 6.99609C25.0762 6.99219 25.1035 6.99023 25.127 6.99023C25.1738 6.99023 25.2129 7.00195 25.2441 7.02539C25.2754 7.04492 25.3008 7.07031 25.3203 7.10156C25.3438 7.12891 25.3594 7.16016 25.3672 7.19531C25.375 7.22656 25.3789 7.25391 25.3789 7.27734C25.3789 7.3125 25.375 7.35547 25.3672 7.40625C25.3594 7.45312 25.3301 7.50781 25.2793 7.57031C25.2598 7.58984 25.1934 7.64258 25.0801 7.72852C24.9707 7.81445 24.8281 7.91602 24.6523 8.0332C24.4766 8.15039 24.2715 8.27539 24.0371 8.4082C23.8066 8.53711 23.5605 8.65625 23.2988 8.76562C23.041 8.875 22.7715 8.96484 22.4902 9.03516C22.209 9.10938 21.9316 9.14648 21.6582 9.14648C21.4238 9.14648 21.2148 9.10156 21.0312 9.01172C20.8516 8.92188 20.6973 8.80078 20.5684 8.64844C20.4434 8.49609 20.3477 8.32031 20.2812 8.12109C20.2148 7.92188 20.1816 7.71289 20.1816 7.49414C20.1816 7.32617 20.2148 7.14258 20.2812 6.94336C20.3477 6.74023 20.4434 6.53711 20.5684 6.33398C20.6934 6.13086 20.8457 5.93359 21.0254 5.74219C21.209 5.54688 21.4141 5.375 21.6406 5.22656C21.8672 5.07812 22.1152 4.95898 22.3848 4.86914C22.6582 4.7793 22.9492 4.73438 23.2578 4.73438Z" fill="white"/>
</svg>
